<?xml version="1.0" encoding="UTF-8" standalone="no"?>
<!-- Created with Inkscape (http://www.inkscape.org/) -->

<svg
   xmlns:dc="http://purl.org/dc/elements/1.1/"
   xmlns:cc="http://creativecommons.org/ns#"
   xmlns:rdf="http://www.w3.org/1999/02/22-rdf-syntax-ns#"
   xmlns:svg="http://www.w3.org/2000/svg"
   xmlns="http://www.w3.org/2000/svg"
   xmlns:sodipodi="http://sodipodi.sourceforge.net/DTD/sodipodi-0.dtd"
   xmlns:inkscape="http://www.inkscape.org/namespaces/inkscape"
   width="740"
   height="200"
   viewBox="0 0 195.79166 52.916668"
   version="1.1"
   id="svg43351"
   inkscape:version="0.92.4 (5da689c313, 2019-01-14)"
   sodipodi:docname="jp.svg">
  <defs
     id="defs43345" />
  <sodipodi:namedview
     id="base"
     pagecolor="#ffffff"
     bordercolor="#666666"
     borderopacity="1.0"
     inkscape:pageopacity="0.0"
     inkscape:pageshadow="2"
     inkscape:zoom="1.979899"
     inkscape:cx="393.30311"
     inkscape:cy="44.049757"
     inkscape:document-units="mm"
     inkscape:current-layer="layer1"
     showgrid="false"
     units="px"
     inkscape:window-width="1920"
     inkscape:window-height="986"
     inkscape:window-x="-11"
     inkscape:window-y="-11"
     inkscape:window-maximized="1" />
  <metadata
     id="metadata43348">
    <rdf:RDF>
      <cc:Work
         rdf:about="">
        <dc:format>image/svg+xml</dc:format>
        <dc:type
           rdf:resource="http://purl.org/dc/dcmitype/StillImage" />
        <dc:title></dc:title>
      </cc:Work>
    </rdf:RDF>
  </metadata>
  <g
     inkscape:label="Capa 1"
     inkscape:groupmode="layer"
     id="layer1"
     transform="translate(0,-244.08331)">
    <path
       style="fill:#3a455f;fill-opacity:0.99607843;stroke-width:0.50507629"
       d="m 18.132454,170.56172 c -3.194607,-2.6452 -6.707841,-5.57258 -7.807187,-6.50532 l -1.998809,-1.69587 3.869678,-3.75831 c 4.14194,-4.02274 8.443983,-10.15679 10.857352,-15.48091 3.63281,-8.01433 5.596425,-14.56135 9.316335,-31.0622 0.313123,-1.38896 1.013158,-4.23001 1.555631,-6.31345 1.184549,-4.54941 2.285483,-9.060786 4.991882,-20.455588 1.12164,-4.722463 2.481985,-10.120466 3.022988,-11.995562 l 0.983642,-3.409264 h 12.352982 c 6.794142,0 12.352981,0.193368 12.352981,0.429707 0,0.236339 -0.207667,1.088655 -0.461478,1.894036 -0.253811,0.805381 -0.955185,3.62353 -1.5586,6.262553 -0.603415,2.639024 -2.907593,12.184965 -5.120392,21.213204 -4.455294,18.177644 -7.024435,28.749004 -8.28548,34.092644 -3.397086,14.39505 -8.426531,23.67938 -18.304116,33.78931 -3.917316,4.00946 -8.644707,7.91184 -9.499851,7.84196 -0.252549,-0.0206 -3.07295,-2.20176 -6.267558,-4.84694 z"
       id="path43410"
       inkscape:connector-curvature="0"
       transform="matrix(0.26458333,0,0,0.26458333,0,244.08331)" />
    <path
       style="fill:#3a455f;fill-opacity:0.99607843;stroke-width:0.50507629"
       d="m 44.39642,63.892207 c 0,-0.557685 2.157856,-9.98547 3.714837,-16.230317 l 1.196305,-4.798225 2.973999,-0.323989 c 1.6357,-0.178194 7.255558,-0.348658 12.488575,-0.378808 l 9.514575,-0.05482 -0.348769,2.146574 c -0.783697,4.823442 -4.714117,19.212914 -5.359604,19.621789 -0.90456,0.572982 -24.179918,0.59011 -24.179918,0.01779 z"
       id="path43412"
       inkscape:connector-curvature="0"
       transform="matrix(0.26458333,0,0,0.26458333,0,244.08331)" />
    <path
       style="fill:#3a455f;fill-opacity:0.99607843;stroke-width:0.50507629"
       d="m 102.73273,147.88917 c -0.83338,-0.11333 -3.447146,-0.4654 -5.808377,-0.78237 -7.949321,-1.06711 -13.663777,-4.12791 -18.285009,-9.79387 -10.07693,-12.35505 -11.243052,-29.51858 -3.12901,-46.05422 4.185212,-8.529062 8.970428,-13.040376 17.929364,-16.903102 7.634042,-3.291487 9.305232,-3.46021 34.273012,-3.46021 12.23456,0 22.24465,0.128373 22.24465,0.285274 0,0.156901 -0.56192,2.486565 -1.24871,5.177032 -1.14793,4.496937 -2.54362,10.202717 -9.10354,37.216636 -1.2817,5.27805 -3.59667,14.59671 -5.14439,20.70813 -1.54772,6.11142 -2.92539,11.62307 -3.06149,12.2481 -0.23697,1.08827 -0.46624,1.13642 -5.41121,1.13642 -2.84006,0 -8.89342,0.0964 -13.45191,0.21412 -4.55848,0.11776 -8.97,0.12139 -9.80338,0.008 z m 9.47032,-24.84465 c 1.99178,-7.95381 6.80632,-27.893885 7.1951,-29.799497 l 0.3349,-1.641498 h -5.32449 c -7.04578,0 -10.05735,1.078632 -13.98908,5.010357 -5.616077,5.616078 -6.48947,13.076028 -2.568646,21.939708 1.333761,3.01519 6.782676,8.51755 9.175046,9.26504 3.71568,1.16096 3.68348,1.19065 5.17717,-4.77411 z"
       id="path43414"
       inkscape:connector-curvature="0"
       transform="matrix(0.26458333,0,0,0.26458333,0,244.08331)" />
    <path
       style="fill:#3a455f;fill-opacity:0.99607843;stroke-width:0.50507629"
       d="m 114.97307,62.969597 c -0.72904,-0.190082 0.27159,-1.95251 5.48691,-9.664129 3.5082,-5.187408 6.68131,-9.752095 7.05135,-10.143749 0.50821,-0.537899 2.90369,-0.78501 9.79231,-1.010152 5.01574,-0.16393 9.11922,-0.157244 9.11885,0.01486 -3.6e-4,0.172101 -3.0826,4.83143 -6.84941,10.354063 -4.36104,6.393843 -7.25056,10.160461 -7.95495,10.369613 -1.24866,0.37076 -15.27109,0.43773 -16.64506,0.0795 z"
       id="path43416"
       inkscape:connector-curvature="0"
       transform="matrix(0.26458333,0,0,0.26458333,0,244.08331)" />
    <path
       style="fill:#3a455f;fill-opacity:0.99607843;stroke-width:0.50507629"
       d="m 146.80063,148.84559 c -4.71636,-0.25416 -4.60106,0.18843 -2.19177,-8.41321 0.94741,-3.38245 2.02187,-7.45679 2.38769,-9.0541 l 0.66512,-2.90419 h 10.42364 c 9.78054,0 10.50575,-0.0646 11.75445,-1.04681 0.73194,-0.57574 1.3308,-1.29014 1.3308,-1.58755 0,-0.29741 -2.38293,-5.26276 -5.2954,-11.0341 -2.91247,-5.77135 -5.6276,-11.47773 -6.03363,-12.68085 -4.37085,-12.951464 1.02936,-24.766176 13.60188,-29.758538 2.97355,-1.180751 3.41698,-1.208232 23.61274,-1.463366 11.32026,-0.143009 20.5821,-0.216186 20.58186,-0.162617 -2.4e-4,0.05357 -0.42074,0.849064 -0.93445,1.767767 -0.5137,0.918702 -3.04608,5.591023 -5.62749,10.382934 l -4.69349,8.712565 -7.88329,8.08e-4 c -6.50605,6.25e-4 -8.19212,0.155576 -9.65106,0.886911 -1.55946,0.781733 -1.7514,1.088488 -1.62889,2.603329 0.15149,1.873306 2.77593,7.592127 6.39452,13.934087 6.9115,12.11312 7.82264,17.57767 4.24154,25.43866 -1.71981,3.77522 -7.03418,8.66659 -12.03762,11.07949 -2.36123,1.1387 -5.31593,2.30815 -6.56599,2.59877 -2.39255,0.55625 -25.7636,1.06038 -32.45116,0.70001 z"
       id="path43418"
       inkscape:connector-curvature="0"
       transform="matrix(0.26458333,0,0,0.26458333,0,244.08331)" />
    <path
       style="fill:#3a455f;fill-opacity:0.99607843;stroke-width:0.50507629"
       d="m 221.75524,115.97346 c 0.90245,-1.31952 5.00792,-7.10562 9.12327,-12.85802 4.11535,-5.752395 7.61698,-10.809471 7.7814,-11.237946 0.26383,-0.687531 -1.01268,-0.779045 -10.86676,-0.779045 -6.14115,0 -11.16572,-0.138906 -11.16572,-0.308681 0,-0.270072 1.82575,-3.795486 8.67657,-16.753922 1.00666,-1.904117 2.08145,-3.269181 2.68765,-3.413504 0.55558,-0.132275 12.75272,-0.295413 27.10474,-0.362529 l 26.0946,-0.122029 -1.83416,2.525381 c -1.0088,1.38896 -6.44631,9.002985 -12.08337,16.920055 -5.63706,7.917071 -12.57678,17.6331 -15.4216,21.59118 l -5.17239,7.1965 -13.28252,8.3e-4 -13.28252,8.4e-4 z"
       id="path43420"
       inkscape:connector-curvature="0"
       transform="matrix(0.26458333,0,0,0.26458333,0,244.08331)" />
    <path
       style="fill:#3a455f;fill-opacity:0.99607843;stroke-width:0.50507629"
       d="m 195.74137,147.54072 c 1.01377,-1.65483 10.19876,-14.56269 11.95016,-16.79378 1.80209,-2.29568 2.21826,-2.5553 4.57527,-2.85424 2.83784,-0.35993 48.80734,-0.56174 48.80734,-0.21427 0,0.11796 -2.40545,4.77729 -5.34544,10.35406 l -5.34545,10.13958 h -27.51432 c -21.88101,0 -27.43513,-0.12926 -27.12756,-0.63135 z"
       id="path43422"
       inkscape:connector-curvature="0"
       transform="matrix(0.26458333,0,0,0.26458333,0,244.08331)" />
    <path
       style="fill:#3a455f;fill-opacity:0.99607843;stroke-width:0.50507629"
       d="m 259.73203,178.08925 c -0.42202,-0.26854 0.16603,-3.39037 2.11543,-11.23022 3.32817,-13.38487 7.17753,-29.046 11.85547,-48.23392 3.58207,-14.69292 6.6875,-27.391272 9.56626,-39.117127 0.84895,-3.457941 1.54354,-6.367555 1.54354,-6.465809 0,-0.09825 11.30739,-0.110083 25.12754,-0.02629 l 25.12755,0.152355 3.50462,1.712812 c 4.35856,2.130152 8.01761,5.718704 9.71909,9.531845 1.76684,3.95963 2.15452,10.302963 0.94073,15.392225 -3.2393,13.581809 -8.78079,24.150929 -16.89651,32.226249 -9.27089,9.22472 -20.54711,15.17287 -38.26977,20.18708 -4.25197,1.20299 -3.45052,-0.48526 -7.25032,15.27279 l -2.64896,10.9854 -11.92509,-0.008 c -6.5588,-0.004 -12.18811,-0.1751 -12.50958,-0.37966 z m 41.09922,-48.9127 c 5.77259,-1.94137 13.41781,-8.68295 18.2663,-16.10728 3.83662,-5.87492 4.98419,-10.79805 3.4005,-14.588354 -1.41148,-3.378154 -5.23658,-4.857086 -12.56234,-4.857086 -3.80399,0 -4.87254,0.158147 -5.10159,0.755042 -0.28883,0.752676 -3.06439,12.009458 -5.91606,23.993698 -0.82627,3.4724 -1.72421,7.13532 -1.99544,8.13982 -1.0225,3.78689 -0.49629,4.14556 3.90863,2.66416 z"
       id="path43424"
       inkscape:connector-curvature="0"
       transform="matrix(0.26458333,0,0,0.26458333,0,244.08331)" />
    <path
       style="fill:#3a455f;fill-opacity:0.99607843;stroke-width:0.50507629"
       d="m 345.42188,150.1247 c 0,-0.5928 0.22089,-1.89968 0.49086,-2.90419 0.26998,-1.0045 1.51106,-6.03112 2.75796,-11.17027 3.4914,-14.38994 7.46143,-30.65331 11.343,-46.46702 3.262,-13.289574 8.34341,-34.166646 9.77325,-40.153563 0.33172,-1.38896 0.83786,-2.692365 1.12474,-2.896455 0.28689,-0.20409 6.16222,-0.374553 13.05629,-0.378807 11.70488,-0.0072 12.51698,0.05078 12.26744,0.876149 -0.14698,0.486136 -0.85385,3.384011 -1.57082,6.439723 -1.80206,7.68038 -7.60803,31.56981 -12.58201,51.770313 -1.47061,5.97253 -4.58196,18.62604 -6.9141,28.11892 l -4.24026,17.25977 -1.45209,0.29163 c -0.79866,0.16039 -6.53758,0.29163 -12.75318,0.29163 -11.20087,0 -11.30108,-0.01 -11.30108,-1.07783 z"
       id="path43426"
       inkscape:connector-curvature="0"
       transform="matrix(0.26458333,0,0,0.26458333,0,244.08331)" />
    <path
       style="fill:#3a455f;fill-opacity:0.99607843;stroke-width:0.50507629"
       d="m 416.3851,150.45319 c -7.14448,-1.04669 -13.25106,-3.98791 -16.89393,-8.1369 -8.94356,-10.18616 -12.23687,-24.07943 -8.86298,-37.38975 1.56989,-6.193391 5.91115,-15.157795 9.06669,-18.722117 3.9496,-4.461234 11.58176,-8.893642 19.2156,-11.159523 2.00239,-0.594351 7.46776,-0.813992 26.39069,-1.060584 13.12591,-0.171049 23.8651,-0.126434 23.86485,0.09914 -2.5e-4,0.225579 -1.60028,6.930467 -3.55563,14.89975 -1.95534,7.969284 -4.604,18.808014 -5.88592,24.086064 -4.97683,20.49111 -9.23401,37.27874 -9.52814,37.57293 -0.58182,0.58194 -29.6584,0.41938 -33.81123,-0.18901 z m 16.66941,-31.82808 c 4.32634,-17.32289 5.30285,-21.532156 5.30207,-22.854705 -6.5e-4,-1.103441 -0.14359,-1.135286 -4.92516,-1.097277 -7.32772,0.05825 -12.28122,2.277135 -15.73869,7.050032 -2.93009,4.04487 -3.72185,9.19811 -2.27526,14.80874 2.06072,7.99258 8.70792,15.26649 13.53394,14.80994 0.8067,-0.0763 1.42401,-1.98955 4.1031,-12.71673 z"
       id="path43428"
       inkscape:connector-curvature="0"
       transform="matrix(0.26458333,0,0,0.26458333,0,244.08331)" />
    <path
       style="fill:#3a455f;fill-opacity:0.99607843;stroke-width:0.50507629"
       d="m 458.05865,151.61151 c 0.005,-0.69371 1.39958,-6.17992 3.80722,-14.97733 l 1.42981,-5.22445 10.15336,0.17368 c 9.05164,0.15483 10.30179,0.0765 11.52124,-0.72185 0.75233,-0.49254 1.36788,-1.34674 1.36788,-1.89822 0,-0.55149 -2.2756,-5.53897 -5.05689,-11.08328 -2.78129,-5.54432 -5.30663,-10.71315 -5.61186,-11.4863 -1.99501,-5.0533 -2.47443,-11.596164 -1.17678,-16.059922 1.56478,-5.382654 6.56423,-11.298445 11.45611,-13.555865 5.56746,-2.569182 5.08414,-2.517863 25.7695,-2.736191 13.00865,-0.137303 19.57171,-0.03508 19.57171,0.304834 0,0.281275 -1.09954,2.858619 -2.44343,5.727432 -1.34388,2.868813 -3.41942,7.303499 -4.61231,9.854857 l -2.16889,4.638832 -8.14086,0.159392 c -10.03878,0.196552 -11.22144,0.607816 -11.07478,3.851202 0.069,1.526149 0.99526,3.824999 3.24773,8.060469 6.31456,11.8737 8.05104,15.58884 8.86771,18.97209 0.78187,3.2391 0.77836,3.68133 -0.0574,7.22642 -1.97779,8.38932 -9.27783,15.27229 -19.31201,18.20866 -2.45652,0.71887 -5.80903,0.89182 -20.24297,1.04431 -14.01802,0.1481 -17.29796,0.0573 -17.2941,-0.47877 z"
       id="path43430"
       inkscape:connector-curvature="0"
       transform="matrix(0.26458333,0,0,0.26458333,0,244.08331)" />
    <path
       style="fill:#3a455f;fill-opacity:0.99607843;stroke-width:0.50507629"
       d="m 517.77653,146.72072 c 1.73764,-2.46499 5.20491,-7.32268 7.70504,-10.79486 21.86551,-30.36688 28.95886,-40.478236 28.70144,-40.91307 -0.12333,-0.208344 -5.21109,-0.378807 -11.30612,-0.378807 -6.09502,0 -11.08187,-0.14373 -11.08187,-0.319399 0,-0.175669 1.10615,-2.391691 2.4581,-4.924493 1.35195,-2.532803 3.74552,-7.024039 5.31904,-9.980527 l 2.86096,-5.375431 9.20189,-0.338169 c 5.06105,-0.185993 17.3279,-0.267177 27.25968,-0.180408 l 18.05778,0.157762 -5.68341,8.083623 c -3.12588,4.445993 -6.07795,8.650753 -6.56016,9.343911 -0.48221,0.693158 -3.43691,4.831986 -6.56599,9.197398 -8.0296,11.20215 -17.4703,24.49923 -19.23478,27.09188 -1.21178,1.78054 -1.3629,2.28371 -0.79406,2.64392 0.38639,0.24469 5.64597,0.44836 11.68794,0.45262 6.04198,0.004 10.98541,0.15021 10.98541,0.32436 0,0.17414 -0.87961,1.93559 -1.95469,3.91434 -2.29539,4.22479 -4.80721,8.91862 -7.12818,13.32043 l -1.66447,3.15673 h -27.71145 -27.71146 z"
       id="path43432"
       inkscape:connector-curvature="0"
       transform="matrix(0.26458333,0,0,0.26458333,0,244.08331)" />
    <path
       style="fill:#3a455f;fill-opacity:0.99607843;stroke-width:0.50507629"
       d="m 600.85094,151.50145 c -5.41816,-1.16364 -7.53381,-3.71638 -8.45429,-10.20094 -0.72594,-5.11408 -0.3381,-8.27707 2.31596,-18.88733 3.91027,-15.63222 6.27786,-25.705348 6.27786,-26.709647 0,-0.96218 -0.28429,-1.06955 -2.83195,-1.06955 -2.3832,0 -2.78304,-0.12749 -2.52323,-0.804536 0.1698,-0.442495 0.43823,-1.408454 0.59652,-2.146575 0.37572,-1.752055 3.74837,-15.727269 4.07201,-16.873133 0.16333,-0.57826 0.75044,-0.883883 1.69796,-0.883883 3.4722,0 3.73118,-0.363637 5.54379,-7.784079 0.92224,-3.775477 1.92701,-7.059951 2.23281,-7.298832 0.3058,-0.23888 6.35175,-2.088825 13.43545,-4.110988 7.08369,-2.022163 13.14697,-3.776277 13.47394,-3.898031 0.35984,-0.133993 0.51161,0.143256 0.38452,0.702409 -0.11549,0.508078 -1.23533,5.186152 -2.48853,10.395719 -1.25321,5.209566 -2.27856,9.925716 -2.27856,10.480332 0,0.951508 0.34023,1.008394 6.03111,1.008394 3.31711,0 6.1484,0.189781 6.29175,0.421737 0.14336,0.231956 0.0434,1.197914 -0.22214,2.146574 -0.26554,0.94866 -1.29232,5.134102 -2.28173,9.300981 -0.98942,4.166879 -1.91414,7.973892 -2.05493,8.460028 -0.22668,0.782679 -0.9994,0.883883 -6.74877,0.883883 h -6.49279 l -0.5077,1.641498 c -0.27924,0.902824 -1.55824,5.959899 -2.84222,11.237949 -4.28462,17.61274 -4.37387,18.08573 -3.75006,19.87518 0.75023,2.15212 3.45225,3.10579 8.79963,3.10579 2.35561,0 4.28293,0.10466 4.28293,0.23257 0,0.12792 -1.2205,2.57122 -2.71221,5.42957 -1.49172,2.85835 -3.89487,7.49289 -5.34034,10.29898 l -2.62812,5.10198 -5.64508,0.32529 c -7.8799,0.45408 -12.23878,0.34775 -15.63359,-0.38134 z"
       id="path43434"
       inkscape:connector-curvature="0"
       transform="matrix(0.26458333,0,0,0.26458333,0,244.08331)" />
    <path
       style="fill:#3a455f;fill-opacity:0.99607843;stroke-width:0.50507629"
       d="m 635.84074,150.6921 c 0,-1.11924 2.31893,-11.11456 7.38101,-31.81446 6.35769,-25.997924 8.83322,-36.137937 9.37132,-38.385793 0.29924,-1.250063 0.87327,-3.466086 1.27562,-4.924493 l 0.73155,-2.651651 h 12.37256 c 11.54776,0 12.35488,0.05892 12.10724,0.883884 -0.14593,0.486136 -1.75895,7.02056 -3.5845,14.520943 -5.68948,23.37557 -14.41934,58.78958 -15.22083,61.74557 l -0.30813,1.13643 h -12.06292 c -7.78948,0 -12.06292,-0.18083 -12.06292,-0.51043 z"
       id="path43436"
       inkscape:connector-curvature="0"
       transform="matrix(0.26458333,0,0,0.26458333,0,244.08331)" />
    <path
       style="fill:#3a455f;fill-opacity:0.99607843;stroke-width:0.50507629"
       d="m 690.80119,150.8608 c -0.47575,-0.12561 -0.98505,-0.93433 -1.15591,-1.83545 -0.16798,-0.88599 -0.53985,-2.63368 -0.82637,-3.88374 -0.28652,-1.25006 -0.72019,-3.18198 -0.96372,-4.29315 -0.24352,-1.11117 -1.03258,-4.52043 -1.75346,-7.57614 -0.72088,-3.05571 -1.51966,-6.46498 -1.77508,-7.57615 -3.93822,-17.13309 -3.7695,-16.1426 -3.04688,-17.88715 0.34902,-0.84262 2.71184,-4.35759 5.2507,-7.811034 2.53887,-3.453445 5.65821,-7.72093 6.93188,-9.4833 1.27368,-1.76237 4.66351,-6.443111 7.53297,-10.401646 l 5.2172,-7.197337 h 13.5358 13.53579 l -3.79035,5.177032 c -2.0847,2.847368 -5.25862,7.222591 -7.05317,9.722718 -1.79455,2.500128 -5.64436,7.841309 -8.55514,11.869293 -2.91077,4.027984 -5.19657,7.664534 -5.07956,8.081224 0.11702,0.41668 1.70522,7.57614 3.52932,15.9099 1.82411,8.33376 3.52664,16.06142 3.78339,17.17259 0.25676,1.11117 0.72534,3.49766 1.0413,5.3033 0.31595,1.80565 0.65079,3.68075 0.74408,4.16688 0.15828,0.82478 -0.71376,0.87997 -13.04135,0.8253 -7.26603,-0.0322 -13.59368,-0.15964 -14.06144,-0.28314 z"
       id="path43438"
       inkscape:connector-curvature="0"
       transform="matrix(0.26458333,0,0,0.26458333,0,244.08331)" />
    <path
       style="fill:#3a455f;fill-opacity:0.99607843;stroke-width:0.50507629"
       d="m 658.08507,61.827676 c -0.6339,-0.400966 -0.5517,-1.227641 0.58932,-5.926912 0.72929,-3.003525 1.85488,-7.656234 2.50132,-10.339352 l 1.17535,-4.878398 1.77086,-0.293075 c 0.97397,-0.161192 6.57602,-0.295577 12.449,-0.298635 l 10.67814,-0.0056 -0.89526,3.914341 c -0.4924,2.152887 -1.65176,7.017481 -2.57636,10.810208 l -1.6811,6.895866 -1.78833,0.295912 c -2.89646,0.479272 -21.41935,0.333912 -22.22294,-0.174397 z"
       id="path43440"
       inkscape:connector-curvature="0"
       transform="matrix(0.26458333,0,0,0.26458333,0,244.08331)" />
  </g>
</svg>
